<mxfile host="app.diagrams.net" agent="Mozilla/5.0 (Macintosh; Intel Mac OS X 10_15_7) AppleWebKit/537.36 (KHTML, like Gecko) Chrome/140.0.0.0 Safari/537.36 Edg/140.0.0.0" version="28.2.3" pages="6">
  <diagram name="(Balanced, Light) 1280x640" id="nEjvCVa4jbgxEu_l4KeK">
    <mxGraphModel dx="1257" dy="853" grid="1" gridSize="10" guides="1" tooltips="1" connect="1" arrows="1" fold="1" page="1" pageScale="1" pageWidth="850" pageHeight="1100" math="0" shadow="0">
      <root>
        <mxCell id="0" />
        <mxCell id="1" parent="0" />
        <mxCell id="otpVZS_Dtfl0SoZ3iYky-1" value="" style="rounded=1;whiteSpace=wrap;html=1;fontSize=20;strokeColor=#98aec9;fillColor=#f5f7fb;" vertex="1" parent="1">
          <mxGeometry x="20" y="20" width="1240" height="90" as="geometry" />
        </mxCell>
        <mxCell id="otpVZS_Dtfl0SoZ3iYky-2" value="HybridOps.Studio — Multicloud Automation" style="whiteSpace=wrap;html=1;fontSize=40;align=center;verticalAlign=middle;strokeColor=none;fillColor=none;fontColor=#111827;" vertex="1" parent="1">
          <mxGeometry x="20" y="20" width="1240" height="90" as="geometry" />
        </mxCell>
        <mxCell id="otpVZS_Dtfl0SoZ3iYky-3" value="" style="rounded=1;whiteSpace=wrap;html=1;fontSize=16;strokeColor=#98aec9;fillColor=#ffffff;" vertex="1" parent="1">
          <mxGeometry x="20" y="130" width="1240" height="75" as="geometry" />
        </mxCell>
        <mxCell id="otpVZS_Dtfl0SoZ3iYky-4" value="Hybrid multicloud automation: On‑Prem ↔ Cloud, DR/Burst, policy‑driven" style="whiteSpace=wrap;html=1;fontSize=26;align=center;verticalAlign=middle;strokeColor=none;fillColor=none;fontColor=#1f2937;" vertex="1" parent="1">
          <mxGeometry x="20" y="130" width="1240" height="75" as="geometry" />
        </mxCell>
        <mxCell id="otpVZS_Dtfl0SoZ3iYky-5" value="hybridops.studio  •  © HybridOps.Studio" style="whiteSpace=wrap;html=1;fontSize=22;align=center;verticalAlign=middle;strokeColor=none;fillColor=none;fontColor=#6b7280;" vertex="1" parent="1">
          <mxGeometry x="20" y="580" width="1240" height="40" as="geometry" />
        </mxCell>
      </root>
    </mxGraphModel>
  </diagram>
  <diagram name=" (Balanced, Dark) 1280x640" id="qhYUAaAB8tjnqmYS6VvV">
    <mxGraphModel dx="1257" dy="853" grid="1" gridSize="10" guides="1" tooltips="1" connect="0" arrows="0" fold="1" page="1" pageScale="1" pageWidth="1280" pageHeight="640" background="#0b1220" math="0" shadow="0">
      <root>
        <mxCell id="0" />
        <mxCell id="1" parent="0" />
        <mxCell id="hdr" value="" style="rounded=1;whiteSpace=wrap;html=1;fontSize=20;strokeColor=#3b82f6;fillColor=#111827;" parent="1" vertex="1">
          <mxGeometry x="20" y="20" width="1240" height="90" as="geometry" />
        </mxCell>
        <mxCell id="title" value="HybridOps.Studio — Multicloud Automation" style="whiteSpace=wrap;html=1;fontSize=40;align=center;verticalAlign=middle;strokeColor=none;fillColor=none;fontColor=#e5e7eb;" parent="1" vertex="1">
          <mxGeometry x="20" y="20" width="1240" height="90" as="geometry" />
        </mxCell>
        <mxCell id="subband" value="" style="rounded=1;whiteSpace=wrap;html=1;fontSize=16;strokeColor=#334155;fillColor=#0f172a;" parent="1" vertex="1">
          <mxGeometry x="20" y="130" width="1240" height="75" as="geometry" />
        </mxCell>
        <mxCell id="subtitle" value="Hybrid multicloud automation: On‑Prem ↔ Cloud, DR/Burst, policy‑driven" style="whiteSpace=wrap;html=1;fontSize=26;align=center;verticalAlign=middle;strokeColor=none;fillColor=none;fontColor=#cbd5e1;" parent="1" vertex="1">
          <mxGeometry x="20" y="130" width="1240" height="75" as="geometry" />
        </mxCell>
        <mxCell id="footer" value="hybridops.studio  •  © HybridOps.Studio" style="whiteSpace=wrap;html=1;fontSize=22;align=center;verticalAlign=middle;strokeColor=none;fillColor=none;fontColor=#94a3b8;" parent="1" vertex="1">
          <mxGeometry x="20" y="580" width="1240" height="40" as="geometry" />
        </mxCell>
      </root>
    </mxGraphModel>
  </diagram>
  <diagram name="(GTV, Light) 1280x640" id="oTKvyp3Bk9nICKqbas4I">
    <mxGraphModel dx="1257" dy="853" grid="1" gridSize="10" guides="1" tooltips="1" connect="0" arrows="0" fold="1" page="1" pageScale="1" pageWidth="1280" pageHeight="640" background="#FFFFFF" math="0" shadow="0">
      <root>
        <mxCell id="0" />
        <mxCell id="1" parent="0" />
        <mxCell id="hdr" value="" style="rounded=1;whiteSpace=wrap;html=1;fontSize=20;strokeColor=#98aec9;fillColor=#f5f7fb;" parent="1" vertex="1">
          <mxGeometry x="20" y="20" width="1240" height="90" as="geometry" />
        </mxCell>
        <mxCell id="title" value="HybridOps.Studio — Multicloud Automation" style="whiteSpace=wrap;html=1;fontSize=40;align=center;verticalAlign=middle;strokeColor=none;fillColor=none;fontColor=#111827;" parent="1" vertex="1">
          <mxGeometry x="20" y="20" width="1240" height="90" as="geometry" />
        </mxCell>
        <mxCell id="subband" value="" style="rounded=1;whiteSpace=wrap;html=1;fontSize=16;strokeColor=#98aec9;fillColor=#ffffff;" parent="1" vertex="1">
          <mxGeometry x="20" y="130" width="1240" height="75" as="geometry" />
        </mxCell>
        <mxCell id="subtitle" value="Evidence‑backed hybrid blueprint — DR ≤15m, burst‑to‑cloud, policy‑driven" style="whiteSpace=wrap;html=1;fontSize=26;align=center;verticalAlign=middle;strokeColor=none;fillColor=none;fontColor=#1f2937;" parent="1" vertex="1">
          <mxGeometry x="20" y="130" width="1240" height="75" as="geometry" />
        </mxCell>
        <mxCell id="footer" value="hybridops.studio  •  © HybridOps.Studio" style="whiteSpace=wrap;html=1;fontSize=22;align=center;verticalAlign=middle;strokeColor=none;fillColor=none;fontColor=#6b7280;" parent="1" vertex="1">
          <mxGeometry x="20" y="580" width="1240" height="40" as="geometry" />
        </mxCell>
      </root>
    </mxGraphModel>
  </diagram>
  <diagram name=" (GTV, Dark) 1280x640" id="ZGPo0W3cLJlKsoEsj-AA">
    <mxGraphModel dx="1257" dy="853" grid="1" gridSize="10" guides="1" tooltips="1" connect="0" arrows="0" fold="1" page="1" pageScale="1" pageWidth="1280" pageHeight="640" background="#0b1220" math="0" shadow="0">
      <root>
        <mxCell id="0" />
        <mxCell id="1" parent="0" />
        <mxCell id="hdr" value="" style="rounded=1;whiteSpace=wrap;html=1;fontSize=20;strokeColor=#3b82f6;fillColor=#111827;" parent="1" vertex="1">
          <mxGeometry x="20" y="20" width="1240" height="90" as="geometry" />
        </mxCell>
        <mxCell id="title" value="HybridOps.Studio — Multicloud Automation" style="whiteSpace=wrap;html=1;fontSize=40;align=center;verticalAlign=middle;strokeColor=none;fillColor=none;fontColor=#e5e7eb;" parent="1" vertex="1">
          <mxGeometry x="20" y="20" width="1240" height="90" as="geometry" />
        </mxCell>
        <mxCell id="subband" value="" style="rounded=1;whiteSpace=wrap;html=1;fontSize=16;strokeColor=#334155;fillColor=#0f172a;" parent="1" vertex="1">
          <mxGeometry x="20" y="130" width="1240" height="75" as="geometry" />
        </mxCell>
        <mxCell id="subtitle" value="Evidence‑backed hybrid blueprint — DR ≤15m, burst‑to‑cloud, policy‑driven" style="whiteSpace=wrap;html=1;fontSize=26;align=center;verticalAlign=middle;strokeColor=none;fillColor=none;fontColor=#cbd5e1;" parent="1" vertex="1">
          <mxGeometry x="20" y="130" width="1240" height="75" as="geometry" />
        </mxCell>
        <mxCell id="footer" value="hybridops.studio  •  © HybridOps.Studio" style="whiteSpace=wrap;html=1;fontSize=22;align=center;verticalAlign=middle;strokeColor=none;fillColor=none;fontColor=#94a3b8;" parent="1" vertex="1">
          <mxGeometry x="20" y="580" width="1240" height="40" as="geometry" />
        </mxCell>
      </root>
    </mxGraphModel>
  </diagram>
  <diagram name="(Ops/Buyer, Light) 1280x640" id="SrTYwCAXks4hFD3DKe-0">
    <mxGraphModel dx="1257" dy="853" grid="1" gridSize="10" guides="1" tooltips="1" connect="0" arrows="0" fold="1" page="1" pageScale="1" pageWidth="1280" pageHeight="640" background="#FFFFFF" math="0" shadow="0">
      <root>
        <mxCell id="0" />
        <mxCell id="1" parent="0" />
        <mxCell id="hdr" value="" style="rounded=1;whiteSpace=wrap;html=1;fontSize=20;strokeColor=#98aec9;fillColor=#f5f7fb;" parent="1" vertex="1">
          <mxGeometry x="20" y="20" width="1240" height="90" as="geometry" />
        </mxCell>
        <mxCell id="title" value="HybridOps.Studio — Multicloud Automation" style="whiteSpace=wrap;html=1;fontSize=40;align=center;verticalAlign=middle;strokeColor=none;fillColor=none;fontColor=#111827;" parent="1" vertex="1">
          <mxGeometry x="20" y="20" width="1240" height="90" as="geometry" />
        </mxCell>
        <mxCell id="subband" value="" style="rounded=1;whiteSpace=wrap;html=1;fontSize=16;strokeColor=#98aec9;fillColor=#ffffff;" parent="1" vertex="1">
          <mxGeometry x="20" y="130" width="1240" height="75" as="geometry" />
        </mxCell>
        <mxCell id="subtitle" value="Resilient hybrid operations: rapid DR, elastic burst, governed by policy" style="whiteSpace=wrap;html=1;fontSize=26;align=center;verticalAlign=middle;strokeColor=none;fillColor=none;fontColor=#1f2937;" parent="1" vertex="1">
          <mxGeometry x="20" y="130" width="1240" height="75" as="geometry" />
        </mxCell>
        <mxCell id="footer" value="hybridops.studio  •  © HybridOps.Studio" style="whiteSpace=wrap;html=1;fontSize=22;align=center;verticalAlign=middle;strokeColor=none;fillColor=none;fontColor=#6b7280;" parent="1" vertex="1">
          <mxGeometry x="20" y="580" width="1240" height="40" as="geometry" />
        </mxCell>
      </root>
    </mxGraphModel>
  </diagram>
  <diagram name="(Ops/Buyer, Dark) 1280x640" id="KCSYVqtAEHkrnQI9OsaI">
    <mxGraphModel dx="1257" dy="853" grid="1" gridSize="10" guides="1" tooltips="1" connect="0" arrows="0" fold="1" page="1" pageScale="1" pageWidth="1280" pageHeight="640" background="#0b1220" math="0" shadow="0">
      <root>
        <mxCell id="0" />
        <mxCell id="1" parent="0" />
        <mxCell id="hdr" value="" style="rounded=1;whiteSpace=wrap;html=1;fontSize=20;strokeColor=#3b82f6;fillColor=#111827;" parent="1" vertex="1">
          <mxGeometry x="20" y="20" width="1240" height="90" as="geometry" />
        </mxCell>
        <mxCell id="title" value="HybridOps.Studio — Multicloud Automation" style="whiteSpace=wrap;html=1;fontSize=40;align=center;verticalAlign=middle;strokeColor=none;fillColor=none;fontColor=#e5e7eb;" parent="1" vertex="1">
          <mxGeometry x="20" y="20" width="1240" height="90" as="geometry" />
        </mxCell>
        <mxCell id="subband" value="" style="rounded=1;whiteSpace=wrap;html=1;fontSize=16;strokeColor=#334155;fillColor=#0f172a;" parent="1" vertex="1">
          <mxGeometry x="20" y="130" width="1240" height="75" as="geometry" />
        </mxCell>
        <mxCell id="subtitle" value="Resilient hybrid operations: rapid DR, elastic burst, governed by policy" style="whiteSpace=wrap;html=1;fontSize=26;align=center;verticalAlign=middle;strokeColor=none;fillColor=none;fontColor=#cbd5e1;" parent="1" vertex="1">
          <mxGeometry x="20" y="130" width="1240" height="75" as="geometry" />
        </mxCell>
        <mxCell id="footer" value="hybridops.studio  •  © HybridOps.Studio" style="whiteSpace=wrap;html=1;fontSize=22;align=center;verticalAlign=middle;strokeColor=none;fillColor=none;fontColor=#94a3b8;" parent="1" vertex="1">
          <mxGeometry x="20" y="580" width="1240" height="40" as="geometry" />
        </mxCell>
      </root>
    </mxGraphModel>
  </diagram>
</mxfile>
